<?xml version="1.0" encoding="UTF-8"?>
<svg xmlns="http://www.w3.org/2000/svg" viewBox="0 0 320 460" width="320" height="460">
<defs></defs>

<path d="M 160.0,440.0 Q 155.1,324.5 172.7,230.0" fill="none" stroke="#1f150f" stroke-width="26.0" stroke-linecap="round"/>
<path d="M 160.0,440.0 Q 155.1,324.5 172.7,230.0" fill="none" stroke="#3b2a20" stroke-width="20.0" stroke-linecap="round"/>
<path d="M 169.9,276.2 Q 206.5,217.0 243.2,237.0" fill="none" stroke="#1f150f" stroke-width="13.0" stroke-linecap="round" opacity="1.0"/>
<path d="M 169.9,276.2 Q 206.5,217.0 243.2,237.0" fill="none" stroke="#3b2a20" stroke-width="9.0" stroke-linecap="round" opacity="1.0"/>
<ellipse cx="240.2" cy="220.4" rx="26.6" ry="22.9" transform="rotate(-7.8 240.2 220.4)" fill="#233a2d" opacity="1.0"/>
<ellipse cx="261.1" cy="212.6" rx="18.4" ry="14.5" transform="rotate(-7.9 261.1 212.6)" fill="#233a2d" opacity="1.0"/>
<ellipse cx="213.8" cy="219.6" rx="32.9" ry="13.3" transform="rotate(10.4 213.8 219.6)" fill="#3d5c44" opacity="1.0"/>
<ellipse cx="275.7" cy="228.9" rx="25.9" ry="19.3" transform="rotate(16.0 275.7 228.9)" fill="#3d5c44" opacity="1.0"/>
<path d="M 170.6,264.4 Q 137.4,208.4 104.3,243.3" fill="none" stroke="#1f150f" stroke-width="13.0" stroke-linecap="round" opacity="1.0"/>
<path d="M 170.6,264.4 Q 137.4,208.4 104.3,243.3" fill="none" stroke="#3b2a20" stroke-width="9.0" stroke-linecap="round" opacity="1.0"/>
<ellipse cx="104.1" cy="232.2" rx="27.9" ry="20.5" transform="rotate(-1.8 104.1 232.2)" fill="#2f4a3a" opacity="1.0"/>
<ellipse cx="83.2" cy="237.2" rx="20.4" ry="16.5" transform="rotate(-3.5 83.2 237.2)" fill="#3d5c44" opacity="1.0"/>
<ellipse cx="114.8" cy="237.8" rx="24.0" ry="23.7" transform="rotate(-0.2 114.8 237.8)" fill="#2f4a3a" opacity="1.0"/>
<ellipse cx="103.2" cy="233.3" rx="20.9" ry="20.3" transform="rotate(4.5 103.2 233.3)" fill="#3d5c44" opacity="1.0"/>
<ellipse cx="174.3" cy="225.1" rx="40.2" ry="30.3" transform="rotate(-16.6 174.3 225.1)" fill="#233a2d" opacity="1.0"/>
<ellipse cx="143.6" cy="229.0" rx="25.5" ry="23.5" transform="rotate(-19.8 143.6 229.0)" fill="#233a2d" opacity="1.0"/>
<ellipse cx="172.8" cy="224.7" rx="30.7" ry="33.0" transform="rotate(8.3 172.8 224.7)" fill="#3d5c44" opacity="1.0"/>
<ellipse cx="171.1" cy="226.7" rx="37.9" ry="20.6" transform="rotate(6.4 171.1 226.7)" fill="#3d5c44" opacity="1.0"/>
<ellipse cx="199.1" cy="217.4" rx="30.9" ry="18.7" transform="rotate(5.2 199.1 217.4)" fill="#2f4a3a" opacity="1.0"/>
<ellipse cx="158.0" cy="235.5" rx="31.9" ry="27.9" transform="rotate(-6.9 158.0 235.5)" fill="#2f4a3a" opacity="1.0"/>
<ellipse cx="165.3" cy="233.3" rx="27.8" ry="23.1" transform="rotate(-14.3 165.3 233.3)" fill="#233a2d" opacity="1.0"/>
<path d="M 123.4,440.0 Q 137.3,403.7 151.2,440.0" fill="none" stroke="#1f150f" stroke-width="12.06217099456191" stroke-linecap="round" opacity="1.0"/>
<path d="M 123.4,440.0 Q 137.3,403.7 151.2,440.0" fill="none" stroke="#3b2a20" stroke-width="6.062170994561909" stroke-linecap="round" opacity="1.0"/>
<path d="M 149.9,440.0 Q 163.5,405.8 177.1,440.0" fill="none" stroke="#1f150f" stroke-width="14.62643768652446" stroke-linecap="round" opacity="1.0"/>
<path d="M 149.9,440.0 Q 163.5,405.8 177.1,440.0" fill="none" stroke="#3b2a20" stroke-width="8.62643768652446" stroke-linecap="round" opacity="1.0"/>
<path d="M 172.7,440.0 Q 188.6,407.4 204.5,440.0" fill="none" stroke="#1f150f" stroke-width="12.86687577540993" stroke-linecap="round" opacity="1.0"/>
<path d="M 172.7,440.0 Q 188.6,407.4 204.5,440.0" fill="none" stroke="#3b2a20" stroke-width="6.866875775409931" stroke-linecap="round" opacity="1.0"/>
<ellipse cx="160.0" cy="442.2" rx="22.0" ry="4.4" transform="rotate(0.0 160.0 442.2)" fill="#000000" opacity="0.18"/>
</svg>
