<?xml version="1.0" encoding="UTF-8"?>
<svg xmlns="http://www.w3.org/2000/svg" viewBox="0 0 1920 1080" width="1920" height="1080">
<defs><filter id="mistBlur" x="-80%" y="-80%" width="260%" height="260%"><feGaussianBlur stdDeviation="10"/></filter></defs>

<path d="M 115.2,959.0 Q 105.5,811.8 98.9,691.3" fill="none" stroke="#1f150f" stroke-width="31.5" stroke-linecap="round"/>
<path d="M 115.2,959.0 Q 105.5,811.8 98.9,691.3" fill="none" stroke="#3b2a20" stroke-width="25.5" stroke-linecap="round"/>
<path d="M 102.2,745.7 Q 154.4,666.2 206.5,700.2" fill="none" stroke="#1f150f" stroke-width="15.475" stroke-linecap="round" opacity="1.0"/>
<path d="M 102.2,745.7 Q 154.4,666.2 206.5,700.2" fill="none" stroke="#3b2a20" stroke-width="11.475" stroke-linecap="round" opacity="1.0"/>
<ellipse cx="199.3" cy="685.1" rx="41.4" ry="29.8" transform="rotate(-18.1 199.3 685.1)" fill="#3d5c44" opacity="1.0"/>
<ellipse cx="181.1" cy="687.2" rx="40.5" ry="23.6" transform="rotate(-6.8 181.1 687.2)" fill="#2f4a3a" opacity="1.0"/>
<ellipse cx="196.5" cy="689.9" rx="25.6" ry="23.1" transform="rotate(-5.3 196.5 689.9)" fill="#233a2d" opacity="1.0"/>
<ellipse cx="193.0" cy="689.0" rx="35.0" ry="22.5" transform="rotate(-17.5 193.0 689.0)" fill="#2f4a3a" opacity="1.0"/>
<ellipse cx="197.7" cy="688.6" rx="35.2" ry="25.6" transform="rotate(6.6 197.7 688.6)" fill="#3d5c44" opacity="1.0"/>
<ellipse cx="218.7" cy="680.8" rx="29.9" ry="22.8" transform="rotate(9.8 218.7 680.8)" fill="#3d5c44" opacity="1.0"/>
<ellipse cx="174.5" cy="698.3" rx="26.7" ry="18.2" transform="rotate(-5.2 174.5 698.3)" fill="#2f4a3a" opacity="1.0"/>
<path d="M 102.0,742.1 Q 54.9,691.2 7.7,725.8" fill="none" stroke="#1f150f" stroke-width="15.475" stroke-linecap="round" opacity="1.0"/>
<path d="M 102.0,742.1 Q 54.9,691.2 7.7,725.8" fill="none" stroke="#3b2a20" stroke-width="11.475" stroke-linecap="round" opacity="1.0"/>
<ellipse cx="31.1" cy="728.1" rx="39.7" ry="22.2" transform="rotate(-4.9 31.1 728.1)" fill="#3d5c44" opacity="1.0"/>
<ellipse cx="20.1" cy="711.6" rx="26.0" ry="26.8" transform="rotate(-12.4 20.1 711.6)" fill="#3d5c44" opacity="1.0"/>
<ellipse cx="22.0" cy="734.8" rx="40.4" ry="18.3" transform="rotate(6.4 22.0 734.8)" fill="#3d5c44" opacity="1.0"/>
<ellipse cx="13.4" cy="708.9" rx="39.7" ry="25.4" transform="rotate(9.8 13.4 708.9)" fill="#2f4a3a" opacity="1.0"/>
<ellipse cx="-30.6" cy="703.3" rx="23.1" ry="28.2" transform="rotate(19.6 -30.6 703.3)" fill="#3d5c44" opacity="1.0"/>
<ellipse cx="15.6" cy="711.3" rx="37.3" ry="23.7" transform="rotate(18.8 15.6 711.3)" fill="#2f4a3a" opacity="1.0"/>
<ellipse cx="-30.1" cy="715.3" rx="39.8" ry="18.4" transform="rotate(-12.5 -30.1 715.3)" fill="#3d5c44" opacity="1.0"/>
<path d="M 107.5,832.8 Q 166.2,746.2 224.8,777.7" fill="none" stroke="#1f150f" stroke-width="15.475" stroke-linecap="round" opacity="1.0"/>
<path d="M 107.5,832.8 Q 166.2,746.2 224.8,777.7" fill="none" stroke="#3b2a20" stroke-width="11.475" stroke-linecap="round" opacity="1.0"/>
<ellipse cx="231.4" cy="762.0" rx="24.7" ry="18.4" transform="rotate(19.7 231.4 762.0)" fill="#233a2d" opacity="1.0"/>
<ellipse cx="213.1" cy="750.4" rx="35.9" ry="23.6" transform="rotate(2.0 213.1 750.4)" fill="#233a2d" opacity="1.0"/>
<ellipse cx="231.6" cy="770.9" rx="38.5" ry="19.3" transform="rotate(9.6 231.6 770.9)" fill="#3d5c44" opacity="1.0"/>
<ellipse cx="218.9" cy="762.8" rx="39.5" ry="24.3" transform="rotate(11.4 218.9 762.8)" fill="#2f4a3a" opacity="1.0"/>
<ellipse cx="202.1" cy="750.1" rx="30.9" ry="26.8" transform="rotate(-6.8 202.1 750.1)" fill="#233a2d" opacity="1.0"/>
<ellipse cx="225.4" cy="784.8" rx="35.0" ry="20.7" transform="rotate(-9.9 225.4 784.8)" fill="#2f4a3a" opacity="1.0"/>
<ellipse cx="260.9" cy="763.6" rx="33.2" ry="19.5" transform="rotate(7.9 260.9 763.6)" fill="#233a2d" opacity="1.0"/>
<ellipse cx="86.3" cy="694.8" rx="38.0" ry="36.6" transform="rotate(-0.9 86.3 694.8)" fill="#2f4a3a" opacity="1.0"/>
<ellipse cx="84.3" cy="683.1" rx="51.1" ry="29.4" transform="rotate(-4.9 84.3 683.1)" fill="#233a2d" opacity="1.0"/>
<ellipse cx="54.1" cy="680.2" rx="49.2" ry="32.4" transform="rotate(18.2 54.1 680.2)" fill="#2f4a3a" opacity="1.0"/>
<ellipse cx="123.2" cy="702.4" rx="44.6" ry="39.9" transform="rotate(-7.3 123.2 702.4)" fill="#233a2d" opacity="1.0"/>
<ellipse cx="98.2" cy="684.1" rx="52.3" ry="28.7" transform="rotate(-8.2 98.2 684.1)" fill="#3d5c44" opacity="1.0"/>
<ellipse cx="115.6" cy="651.6" rx="47.8" ry="33.5" transform="rotate(2.2 115.6 651.6)" fill="#233a2d" opacity="1.0"/>
<ellipse cx="130.3" cy="658.6" rx="42.1" ry="33.9" transform="rotate(-18.3 130.3 658.6)" fill="#2f4a3a" opacity="1.0"/>
<path d="M 70.6,959.0 Q 88.6,912.3 106.6,959.0" fill="none" stroke="#1f150f" stroke-width="17.148562440281232" stroke-linecap="round" opacity="1.0"/>
<path d="M 70.6,959.0 Q 88.6,912.3 106.6,959.0" fill="none" stroke="#3b2a20" stroke-width="11.148562440281232" stroke-linecap="round" opacity="1.0"/>
<path d="M 102.3,959.0 Q 119.5,920.4 136.7,959.0" fill="none" stroke="#1f150f" stroke-width="16.421512071456853" stroke-linecap="round" opacity="1.0"/>
<path d="M 102.3,959.0 Q 119.5,920.4 136.7,959.0" fill="none" stroke="#3b2a20" stroke-width="10.421512071456853" stroke-linecap="round" opacity="1.0"/>
<path d="M 134.0,959.0 Q 150.3,928.1 166.5,959.0" fill="none" stroke="#1f150f" stroke-width="17.075489454395395" stroke-linecap="round" opacity="1.0"/>
<path d="M 134.0,959.0 Q 150.3,928.1 166.5,959.0" fill="none" stroke="#3b2a20" stroke-width="11.075489454395393" stroke-linecap="round" opacity="1.0"/>
<ellipse cx="115.2" cy="961.8" rx="28.1" ry="5.6" transform="rotate(0.0 115.2 961.8)" fill="#000000" opacity="0.18"/>
<path d="M 384.0,961.6 Q 370.7,745.6 389.5,568.9" fill="none" stroke="#1f150f" stroke-width="43.4" stroke-linecap="round"/>
<path d="M 384.0,961.6 Q 370.7,745.6 389.5,568.9" fill="none" stroke="#3b2a20" stroke-width="37.4" stroke-linecap="round"/>
<path d="M 388.8,614.3 Q 474.5,506.6 560.1,565.1" fill="none" stroke="#1f150f" stroke-width="20.830000000000002" stroke-linecap="round" opacity="1.0"/>
<path d="M 388.8,614.3 Q 474.5,506.6 560.1,565.1" fill="none" stroke="#3b2a20" stroke-width="16.830000000000002" stroke-linecap="round" opacity="1.0"/>
<ellipse cx="582.8" cy="564.7" rx="37.8" ry="39.3" transform="rotate(-12.7 582.8 564.7)" fill="#233a2d" opacity="1.0"/>
<ellipse cx="553.0" cy="561.7" rx="49.7" ry="39.6" transform="rotate(4.8 553.0 561.7)" fill="#233a2d" opacity="1.0"/>
<ellipse cx="506.2" cy="542.4" rx="54.1" ry="32.4" transform="rotate(0.4 506.2 542.4)" fill="#2f4a3a" opacity="1.0"/>
<ellipse cx="562.9" cy="547.4" rx="38.2" ry="36.5" transform="rotate(13.5 562.9 547.4)" fill="#233a2d" opacity="1.0"/>
<ellipse cx="552.9" cy="527.4" rx="47.0" ry="33.2" transform="rotate(6.8 552.9 527.4)" fill="#3d5c44" opacity="1.0"/>
<ellipse cx="560.2" cy="549.8" rx="42.5" ry="38.8" transform="rotate(-2.9 560.2 549.8)" fill="#233a2d" opacity="1.0"/>
<ellipse cx="518.7" cy="527.6" rx="36.8" ry="41.2" transform="rotate(-11.7 518.7 527.6)" fill="#3d5c44" opacity="1.0"/>
<path d="M 387.0,747.0 Q 330.9,649.9 274.8,709.4" fill="none" stroke="#1f150f" stroke-width="20.830000000000002" stroke-linecap="round" opacity="1.0"/>
<path d="M 387.0,747.0 Q 330.9,649.9 274.8,709.4" fill="none" stroke="#3b2a20" stroke-width="16.830000000000002" stroke-linecap="round" opacity="1.0"/>
<ellipse cx="269.6" cy="707.4" rx="48.7" ry="26.8" transform="rotate(-0.1 269.6 707.4)" fill="#233a2d" opacity="1.0"/>
<ellipse cx="257.8" cy="723.1" rx="35.2" ry="29.5" transform="rotate(-9.0 257.8 723.1)" fill="#233a2d" opacity="1.0"/>
<ellipse cx="280.3" cy="685.5" rx="58.5" ry="42.9" transform="rotate(15.2 280.3 685.5)" fill="#233a2d" opacity="1.0"/>
<ellipse cx="261.7" cy="708.4" rx="51.0" ry="24.9" transform="rotate(4.9 261.7 708.4)" fill="#3d5c44" opacity="1.0"/>
<ellipse cx="303.9" cy="711.1" rx="61.4" ry="42.6" transform="rotate(14.5 303.9 711.1)" fill="#233a2d" opacity="1.0"/>
<ellipse cx="288.6" cy="701.3" rx="38.2" ry="38.8" transform="rotate(-4.1 288.6 701.3)" fill="#2f4a3a" opacity="1.0"/>
<ellipse cx="251.9" cy="702.2" rx="61.2" ry="43.5" transform="rotate(-11.3 251.9 702.2)" fill="#233a2d" opacity="1.0"/>
<path d="M 387.0,747.4 Q 474.6,683.2 562.2,724.1" fill="none" stroke="#1f150f" stroke-width="20.830000000000002" stroke-linecap="round" opacity="1.0"/>
<path d="M 387.0,747.4 Q 474.6,683.2 562.2,724.1" fill="none" stroke="#3b2a20" stroke-width="16.830000000000002" stroke-linecap="round" opacity="1.0"/>
<ellipse cx="578.2" cy="685.4" rx="53.7" ry="24.9" transform="rotate(-15.2 578.2 685.4)" fill="#233a2d" opacity="1.0"/>
<ellipse cx="602.5" cy="731.8" rx="60.4" ry="30.3" transform="rotate(-3.1 602.5 731.8)" fill="#233a2d" opacity="1.0"/>
<ellipse cx="566.3" cy="704.3" rx="34.8" ry="44.3" transform="rotate(-7.1 566.3 704.3)" fill="#233a2d" opacity="1.0"/>
<ellipse cx="594.3" cy="712.6" rx="47.8" ry="41.7" transform="rotate(-13.2 594.3 712.6)" fill="#3d5c44" opacity="1.0"/>
<ellipse cx="553.3" cy="704.0" rx="48.9" ry="35.2" transform="rotate(-11.7 553.3 704.0)" fill="#233a2d" opacity="1.0"/>
<ellipse cx="548.6" cy="710.9" rx="53.3" ry="32.4" transform="rotate(-18.4 548.6 710.9)" fill="#3d5c44" opacity="1.0"/>
<ellipse cx="562.3" cy="705.2" rx="52.6" ry="38.8" transform="rotate(-6.5 562.3 705.2)" fill="#2f4a3a" opacity="1.0"/>
<path d="M 386.7,769.2 Q 307.5,675.2 228.4,726.5" fill="none" stroke="#1f150f" stroke-width="20.830000000000002" stroke-linecap="round" opacity="1.0"/>
<path d="M 386.7,769.2 Q 307.5,675.2 228.4,726.5" fill="none" stroke="#3b2a20" stroke-width="16.830000000000002" stroke-linecap="round" opacity="1.0"/>
<ellipse cx="233.5" cy="708.9" rx="44.6" ry="26.9" transform="rotate(-4.8 233.5 708.9)" fill="#2f4a3a" opacity="1.0"/>
<ellipse cx="209.0" cy="703.0" rx="34.4" ry="27.5" transform="rotate(-6.6 209.0 703.0)" fill="#233a2d" opacity="1.0"/>
<ellipse cx="228.4" cy="707.9" rx="45.5" ry="26.5" transform="rotate(-4.9 228.4 707.9)" fill="#233a2d" opacity="1.0"/>
<ellipse cx="273.5" cy="708.9" rx="35.9" ry="25.6" transform="rotate(-14.3 273.5 708.9)" fill="#233a2d" opacity="1.0"/>
<ellipse cx="228.7" cy="707.1" rx="59.2" ry="36.5" transform="rotate(-1.2 228.7 707.1)" fill="#3d5c44" opacity="1.0"/>
<ellipse cx="246.7" cy="710.4" rx="47.9" ry="34.6" transform="rotate(5.6 246.7 710.4)" fill="#233a2d" opacity="1.0"/>
<ellipse cx="174.0" cy="693.7" rx="33.3" ry="43.1" transform="rotate(0.5 174.0 693.7)" fill="#233a2d" opacity="1.0"/>
<ellipse cx="405.9" cy="560.6" rx="72.7" ry="37.7" transform="rotate(16.7 405.9 560.6)" fill="#3d5c44" opacity="1.0"/>
<ellipse cx="368.1" cy="524.2" rx="73.1" ry="46.0" transform="rotate(-1.6 368.1 524.2)" fill="#3d5c44" opacity="1.0"/>
<ellipse cx="414.7" cy="598.0" rx="56.7" ry="53.3" transform="rotate(6.0 414.7 598.0)" fill="#3d5c44" opacity="1.0"/>
<ellipse cx="370.6" cy="560.3" rx="82.0" ry="41.9" transform="rotate(-15.1 370.6 560.3)" fill="#233a2d" opacity="1.0"/>
<ellipse cx="396.4" cy="562.8" rx="64.2" ry="57.8" transform="rotate(-0.5 396.4 562.8)" fill="#3d5c44" opacity="1.0"/>
<ellipse cx="434.8" cy="548.8" rx="66.4" ry="51.9" transform="rotate(11.7 434.8 548.8)" fill="#3d5c44" opacity="1.0"/>
<ellipse cx="417.2" cy="579.4" rx="54.2" ry="54.7" transform="rotate(19.1 417.2 579.4)" fill="#233a2d" opacity="1.0"/>
<ellipse cx="380.6" cy="564.4" rx="63.3" ry="50.1" transform="rotate(-8.4 380.6 564.4)" fill="#233a2d" opacity="1.0"/>
<ellipse cx="396.0" cy="554.1" rx="73.0" ry="58.8" transform="rotate(12.0 396.0 554.1)" fill="#233a2d" opacity="1.0"/>
<ellipse cx="463.9" cy="577.4" rx="55.0" ry="48.1" transform="rotate(19.3 463.9 577.4)" fill="#233a2d" opacity="1.0"/>
<ellipse cx="400.4" cy="565.6" rx="72.8" ry="35.6" transform="rotate(-7.2 400.4 565.6)" fill="#3d5c44" opacity="1.0"/>
<path d="M 320.4,961.6 Q 350.1,914.4 379.8,961.6" fill="none" stroke="#1f150f" stroke-width="18.492135425945897" stroke-linecap="round" opacity="1.0"/>
<path d="M 320.4,961.6 Q 350.1,914.4 379.8,961.6" fill="none" stroke="#3b2a20" stroke-width="12.492135425945895" stroke-linecap="round" opacity="1.0"/>
<path d="M 365.1,961.6 Q 387.9,892.3 410.6,961.6" fill="none" stroke="#1f150f" stroke-width="17.123755798475422" stroke-linecap="round" opacity="1.0"/>
<path d="M 365.1,961.6 Q 387.9,892.3 410.6,961.6" fill="none" stroke="#3b2a20" stroke-width="11.123755798475424" stroke-linecap="round" opacity="1.0"/>
<path d="M 411.2,961.6 Q 436.0,892.0 460.9,961.6" fill="none" stroke="#1f150f" stroke-width="16.811114340912646" stroke-linecap="round" opacity="1.0"/>
<path d="M 411.2,961.6 Q 436.0,892.0 460.9,961.6" fill="none" stroke="#3b2a20" stroke-width="10.811114340912644" stroke-linecap="round" opacity="1.0"/>
<ellipse cx="384.0" cy="965.7" rx="41.1" ry="8.2" transform="rotate(0.0 384.0 965.7)" fill="#000000" opacity="0.18"/>
<path d="M 672.0,964.1 Q 666.2,748.1 648.3,571.4" fill="none" stroke="#1f150f" stroke-width="43.4" stroke-linecap="round"/>
<path d="M 672.0,964.1 Q 666.2,748.1 648.3,571.4" fill="none" stroke="#3b2a20" stroke-width="37.4" stroke-linecap="round"/>
<path d="M 659.5,757.4 Q 736.3,650.9 813.0,698.9" fill="none" stroke="#1f150f" stroke-width="20.830000000000002" stroke-linecap="round" opacity="1.0"/>
<path d="M 659.5,757.4 Q 736.3,650.9 813.0,698.9" fill="none" stroke="#3b2a20" stroke-width="16.830000000000002" stroke-linecap="round" opacity="1.0"/>
<ellipse cx="840.9" cy="678.0" rx="53.6" ry="39.8" transform="rotate(7.6 840.9 678.0)" fill="#2f4a3a" opacity="1.0"/>
<ellipse cx="851.9" cy="665.9" rx="51.8" ry="34.2" transform="rotate(14.9 851.9 665.9)" fill="#3d5c44" opacity="1.0"/>
<ellipse cx="816.7" cy="682.3" rx="39.3" ry="41.7" transform="rotate(-18.2 816.7 682.3)" fill="#2f4a3a" opacity="1.0"/>
<ellipse cx="854.4" cy="674.1" rx="50.4" ry="30.7" transform="rotate(-3.6 854.4 674.1)" fill="#233a2d" opacity="1.0"/>
<ellipse cx="808.3" cy="653.6" rx="44.9" ry="40.9" transform="rotate(10.9 808.3 653.6)" fill="#233a2d" opacity="1.0"/>
<ellipse cx="809.1" cy="678.1" rx="38.7" ry="29.2" transform="rotate(4.7 809.1 678.1)" fill="#233a2d" opacity="1.0"/>
<ellipse cx="797.7" cy="681.7" rx="41.0" ry="29.1" transform="rotate(15.5 797.7 681.7)" fill="#233a2d" opacity="1.0"/>
<path d="M 654.8,678.3 Q 584.2,603.3 513.6,656.8" fill="none" stroke="#1f150f" stroke-width="20.830000000000002" stroke-linecap="round" opacity="1.0"/>
<path d="M 654.8,678.3 Q 584.2,603.3 513.6,656.8" fill="none" stroke="#3b2a20" stroke-width="16.830000000000002" stroke-linecap="round" opacity="1.0"/>
<ellipse cx="535.5" cy="632.3" rx="56.6" ry="29.8" transform="rotate(8.5 535.5 632.3)" fill="#3d5c44" opacity="1.0"/>
<ellipse cx="486.1" cy="618.6" rx="48.6" ry="35.0" transform="rotate(-18.4 486.1 618.6)" fill="#233a2d" opacity="1.0"/>
<ellipse cx="536.2" cy="607.1" rx="37.2" ry="37.7" transform="rotate(15.7 536.2 607.1)" fill="#233a2d" opacity="1.0"/>
<ellipse cx="560.1" cy="628.9" rx="39.6" ry="30.6" transform="rotate(0.3 560.1 628.9)" fill="#3d5c44" opacity="1.0"/>
<ellipse cx="571.0" cy="636.7" rx="55.3" ry="34.1" transform="rotate(15.3 571.0 636.7)" fill="#233a2d" opacity="1.0"/>
<ellipse cx="522.3" cy="652.3" rx="39.5" ry="34.0" transform="rotate(-0.2 522.3 652.3)" fill="#2f4a3a" opacity="1.0"/>
<ellipse cx="508.7" cy="643.4" rx="36.9" ry="41.6" transform="rotate(15.6 508.7 643.4)" fill="#3d5c44" opacity="1.0"/>
<path d="M 654.7,677.9 Q 723.3,540.5 792.0,601.6" fill="none" stroke="#1f150f" stroke-width="20.830000000000002" stroke-linecap="round" opacity="1.0"/>
<path d="M 654.7,677.9 Q 723.3,540.5 792.0,601.6" fill="none" stroke="#3b2a20" stroke-width="16.830000000000002" stroke-linecap="round" opacity="1.0"/>
<ellipse cx="792.6" cy="589.0" rx="44.4" ry="27.9" transform="rotate(8.1 792.6 589.0)" fill="#3d5c44" opacity="1.0"/>
<ellipse cx="779.5" cy="548.6" rx="42.4" ry="34.1" transform="rotate(-18.7 779.5 548.6)" fill="#233a2d" opacity="1.0"/>
<ellipse cx="818.4" cy="580.5" rx="37.6" ry="32.6" transform="rotate(-3.4 818.4 580.5)" fill="#3d5c44" opacity="1.0"/>
<ellipse cx="806.0" cy="596.2" rx="38.2" ry="39.9" transform="rotate(-0.7 806.0 596.2)" fill="#2f4a3a" opacity="1.0"/>
<ellipse cx="736.8" cy="572.1" rx="58.4" ry="28.2" transform="rotate(3.6 736.8 572.1)" fill="#2f4a3a" opacity="1.0"/>
<ellipse cx="825.6" cy="594.0" rx="34.2" ry="42.7" transform="rotate(-3.7 825.6 594.0)" fill="#3d5c44" opacity="1.0"/>
<ellipse cx="790.7" cy="594.3" rx="48.9" ry="43.5" transform="rotate(-14.1 790.7 594.3)" fill="#233a2d" opacity="1.0"/>
<path d="M 657.3,720.8 Q 601.0,629.7 544.7,693.7" fill="none" stroke="#1f150f" stroke-width="20.830000000000002" stroke-linecap="round" opacity="1.0"/>
<path d="M 657.3,720.8 Q 601.0,629.7 544.7,693.7" fill="none" stroke="#3b2a20" stroke-width="16.830000000000002" stroke-linecap="round" opacity="1.0"/>
<ellipse cx="577.5" cy="670.0" rx="38.0" ry="44.5" transform="rotate(-8.8 577.5 670.0)" fill="#3d5c44" opacity="1.0"/>
<ellipse cx="531.9" cy="683.8" rx="44.4" ry="31.1" transform="rotate(-19.1 531.9 683.8)" fill="#3d5c44" opacity="1.0"/>
<ellipse cx="518.8" cy="677.6" rx="39.5" ry="26.8" transform="rotate(-11.7 518.8 677.6)" fill="#3d5c44" opacity="1.0"/>
<ellipse cx="508.6" cy="693.4" rx="51.6" ry="35.7" transform="rotate(-13.2 508.6 693.4)" fill="#3d5c44" opacity="1.0"/>
<ellipse cx="502.9" cy="682.4" rx="50.3" ry="43.9" transform="rotate(-15.5 502.9 682.4)" fill="#233a2d" opacity="1.0"/>
<ellipse cx="517.9" cy="667.6" rx="55.0" ry="37.2" transform="rotate(-16.4 517.9 667.6)" fill="#3d5c44" opacity="1.0"/>
<ellipse cx="544.6" cy="660.7" rx="40.1" ry="28.5" transform="rotate(0.5 544.6 660.7)" fill="#233a2d" opacity="1.0"/>
<ellipse cx="673.3" cy="566.9" rx="45.0" ry="41.6" transform="rotate(7.8 673.3 566.9)" fill="#233a2d" opacity="1.0"/>
<ellipse cx="586.0" cy="567.4" rx="62.6" ry="57.9" transform="rotate(-1.0 586.0 567.4)" fill="#233a2d" opacity="1.0"/>
<ellipse cx="721.8" cy="537.3" rx="47.3" ry="40.1" transform="rotate(16.9 721.8 537.3)" fill="#233a2d" opacity="1.0"/>
<ellipse cx="657.3" cy="560.7" rx="66.8" ry="60.2" transform="rotate(10.1 657.3 560.7)" fill="#233a2d" opacity="1.0"/>
<ellipse cx="647.0" cy="558.9" rx="67.5" ry="35.9" transform="rotate(8.8 647.0 558.9)" fill="#233a2d" opacity="1.0"/>
<ellipse cx="578.0" cy="560.0" rx="83.6" ry="49.3" transform="rotate(-8.3 578.0 560.0)" fill="#233a2d" opacity="1.0"/>
<ellipse cx="689.0" cy="576.7" rx="65.9" ry="58.7" transform="rotate(-12.5 689.0 576.7)" fill="#3d5c44" opacity="1.0"/>
<ellipse cx="597.6" cy="579.2" rx="61.3" ry="60.8" transform="rotate(-11.9 597.6 579.2)" fill="#2f4a3a" opacity="1.0"/>
<ellipse cx="686.6" cy="587.9" rx="54.6" ry="34.0" transform="rotate(3.7 686.6 587.9)" fill="#233a2d" opacity="1.0"/>
<ellipse cx="623.8" cy="592.1" rx="58.3" ry="39.0" transform="rotate(-18.6 623.8 592.1)" fill="#233a2d" opacity="1.0"/>
<ellipse cx="663.9" cy="580.0" rx="56.4" ry="57.0" transform="rotate(-17.1 663.9 580.0)" fill="#2f4a3a" opacity="1.0"/>
<path d="M 606.0,964.1 Q 629.4,924.5 652.9,964.1" fill="none" stroke="#1f150f" stroke-width="18.441186673244516" stroke-linecap="round" opacity="1.0"/>
<path d="M 606.0,964.1 Q 629.4,924.5 652.9,964.1" fill="none" stroke="#3b2a20" stroke-width="12.441186673244518" stroke-linecap="round" opacity="1.0"/>
<path d="M 653.1,964.1 Q 682.1,922.1 711.1,964.1" fill="none" stroke="#1f150f" stroke-width="17.668435675582515" stroke-linecap="round" opacity="1.0"/>
<path d="M 653.1,964.1 Q 682.1,922.1 711.1,964.1" fill="none" stroke="#3b2a20" stroke-width="11.668435675582513" stroke-linecap="round" opacity="1.0"/>
<path d="M 690.6,964.1 Q 712.9,902.3 735.2,964.1" fill="none" stroke="#1f150f" stroke-width="21.65691001905229" stroke-linecap="round" opacity="1.0"/>
<path d="M 690.6,964.1 Q 712.9,902.3 735.2,964.1" fill="none" stroke="#3b2a20" stroke-width="15.65691001905229" stroke-linecap="round" opacity="1.0"/>
<ellipse cx="672.0" cy="968.2" rx="41.1" ry="8.2" transform="rotate(0.0 672.0 968.2)" fill="#000000" opacity="0.18"/>
<path d="M 960.0,963.7 Q 973.8,747.7 992.2,571.0" fill="none" stroke="#1f150f" stroke-width="43.4" stroke-linecap="round"/>
<path d="M 960.0,963.7 Q 973.8,747.7 992.2,571.0" fill="none" stroke="#3b2a20" stroke-width="37.4" stroke-linecap="round"/>
<path d="M 984.9,659.9 Q 1062.6,590.6 1140.3,627.2" fill="none" stroke="#1f150f" stroke-width="20.830000000000002" stroke-linecap="round" opacity="1.0"/>
<path d="M 984.9,659.9 Q 1062.6,590.6 1140.3,627.2" fill="none" stroke="#3b2a20" stroke-width="16.830000000000002" stroke-linecap="round" opacity="1.0"/>
<ellipse cx="1192.4" cy="600.4" rx="54.0" ry="29.4" transform="rotate(-19.7 1192.4 600.4)" fill="#3d5c44" opacity="1.0"/>
<ellipse cx="1175.9" cy="629.9" rx="59.2" ry="26.8" transform="rotate(-15.3 1175.9 629.9)" fill="#2f4a3a" opacity="1.0"/>
<ellipse cx="1128.9" cy="598.4" rx="51.5" ry="42.4" transform="rotate(-9.7 1128.9 598.4)" fill="#233a2d" opacity="1.0"/>
<ellipse cx="1198.5" cy="605.2" rx="37.9" ry="30.8" transform="rotate(-1.3 1198.5 605.2)" fill="#2f4a3a" opacity="1.0"/>
<ellipse cx="1124.8" cy="606.3" rx="38.1" ry="36.4" transform="rotate(-18.5 1124.8 606.3)" fill="#2f4a3a" opacity="1.0"/>
<ellipse cx="1142.0" cy="604.0" rx="37.6" ry="36.2" transform="rotate(16.9 1142.0 604.0)" fill="#3d5c44" opacity="1.0"/>
<ellipse cx="1104.4" cy="638.2" rx="38.7" ry="42.0" transform="rotate(8.9 1104.4 638.2)" fill="#2f4a3a" opacity="1.0"/>
<path d="M 983.3,680.5 Q 931.4,569.8 879.5,636.7" fill="none" stroke="#1f150f" stroke-width="20.830000000000002" stroke-linecap="round" opacity="1.0"/>
<path d="M 983.3,680.5 Q 931.4,569.8 879.5,636.7" fill="none" stroke="#3b2a20" stroke-width="16.830000000000002" stroke-linecap="round" opacity="1.0"/>
<ellipse cx="885.6" cy="611.1" rx="60.1" ry="34.8" transform="rotate(-3.3 885.6 611.1)" fill="#3d5c44" opacity="1.0"/>
<ellipse cx="894.2" cy="596.5" rx="53.0" ry="36.2" transform="rotate(6.8 894.2 596.5)" fill="#2f4a3a" opacity="1.0"/>
<ellipse cx="859.0" cy="625.2" rx="40.9" ry="29.2" transform="rotate(9.0 859.0 625.2)" fill="#233a2d" opacity="1.0"/>
<ellipse cx="883.9" cy="599.7" rx="33.9" ry="38.6" transform="rotate(-10.4 883.9 599.7)" fill="#233a2d" opacity="1.0"/>
<ellipse cx="856.7" cy="611.7" rx="58.0" ry="40.3" transform="rotate(-8.3 856.7 611.7)" fill="#2f4a3a" opacity="1.0"/>
<ellipse cx="850.4" cy="646.1" rx="42.7" ry="42.8" transform="rotate(17.6 850.4 646.1)" fill="#233a2d" opacity="1.0"/>
<ellipse cx="880.9" cy="618.1" rx="51.0" ry="44.2" transform="rotate(-8.0 880.9 618.1)" fill="#233a2d" opacity="1.0"/>
<path d="M 987.2,632.9 Q 1038.9,566.8 1090.7,608.8" fill="none" stroke="#1f150f" stroke-width="20.830000000000002" stroke-linecap="round" opacity="1.0"/>
<path d="M 987.2,632.9 Q 1038.9,566.8 1090.7,608.8" fill="none" stroke="#3b2a20" stroke-width="16.830000000000002" stroke-linecap="round" opacity="1.0"/>
<ellipse cx="1087.9" cy="583.5" rx="35.8" ry="32.1" transform="rotate(-7.8 1087.9 583.5)" fill="#2f4a3a" opacity="1.0"/>
<ellipse cx="1118.9" cy="575.3" rx="47.5" ry="37.2" transform="rotate(12.0 1118.9 575.3)" fill="#233a2d" opacity="1.0"/>
<ellipse cx="1112.5" cy="607.2" rx="53.7" ry="42.0" transform="rotate(2.6 1112.5 607.2)" fill="#2f4a3a" opacity="1.0"/>
<ellipse cx="1110.1" cy="559.6" rx="57.9" ry="30.5" transform="rotate(4.9 1110.1 559.6)" fill="#2f4a3a" opacity="1.0"/>
<ellipse cx="1118.7" cy="578.2" rx="56.4" ry="32.1" transform="rotate(10.6 1118.7 578.2)" fill="#3d5c44" opacity="1.0"/>
<ellipse cx="1085.6" cy="591.0" rx="38.4" ry="42.3" transform="rotate(5.9 1085.6 591.0)" fill="#233a2d" opacity="1.0"/>
<ellipse cx="1119.5" cy="587.3" rx="46.2" ry="26.0" transform="rotate(16.6 1119.5 587.3)" fill="#2f4a3a" opacity="1.0"/>
<path d="M 986.5,640.6 Q 938.7,569.5 890.9,607.2" fill="none" stroke="#1f150f" stroke-width="20.830000000000002" stroke-linecap="round" opacity="1.0"/>
<path d="M 986.5,640.6 Q 938.7,569.5 890.9,607.2" fill="none" stroke="#3b2a20" stroke-width="16.830000000000002" stroke-linecap="round" opacity="1.0"/>
<ellipse cx="902.1" cy="583.7" rx="56.2" ry="30.9" transform="rotate(-12.7 902.1 583.7)" fill="#233a2d" opacity="1.0"/>
<ellipse cx="902.0" cy="597.7" rx="51.1" ry="26.2" transform="rotate(-13.8 902.0 597.7)" fill="#233a2d" opacity="1.0"/>
<ellipse cx="839.9" cy="587.7" rx="51.2" ry="40.1" transform="rotate(-13.7 839.9 587.7)" fill="#3d5c44" opacity="1.0"/>
<ellipse cx="934.2" cy="569.6" rx="59.8" ry="43.3" transform="rotate(-8.9 934.2 569.6)" fill="#2f4a3a" opacity="1.0"/>
<ellipse cx="865.0" cy="576.3" rx="45.3" ry="43.0" transform="rotate(8.5 865.0 576.3)" fill="#233a2d" opacity="1.0"/>
<ellipse cx="873.4" cy="558.7" rx="34.7" ry="33.5" transform="rotate(11.4 873.4 558.7)" fill="#233a2d" opacity="1.0"/>
<ellipse cx="863.0" cy="604.9" rx="33.9" ry="28.7" transform="rotate(18.8 863.0 604.9)" fill="#2f4a3a" opacity="1.0"/>
<ellipse cx="997.0" cy="527.3" rx="61.0" ry="39.2" transform="rotate(-4.1 997.0 527.3)" fill="#233a2d" opacity="1.0"/>
<ellipse cx="1027.2" cy="567.5" rx="62.6" ry="58.9" transform="rotate(-11.9 1027.2 567.5)" fill="#3d5c44" opacity="1.0"/>
<ellipse cx="940.8" cy="560.9" rx="78.5" ry="48.3" transform="rotate(-6.9 940.8 560.9)" fill="#3d5c44" opacity="1.0"/>
<ellipse cx="1019.3" cy="576.7" rx="73.0" ry="53.5" transform="rotate(0.9 1019.3 576.7)" fill="#2f4a3a" opacity="1.0"/>
<ellipse cx="992.9" cy="537.2" rx="79.2" ry="47.5" transform="rotate(17.2 992.9 537.2)" fill="#2f4a3a" opacity="1.0"/>
<ellipse cx="1015.5" cy="588.2" rx="48.8" ry="44.3" transform="rotate(-12.9 1015.5 588.2)" fill="#2f4a3a" opacity="1.0"/>
<ellipse cx="1001.3" cy="556.6" rx="49.9" ry="39.8" transform="rotate(-12.1 1001.3 556.6)" fill="#233a2d" opacity="1.0"/>
<ellipse cx="1018.0" cy="558.2" rx="70.4" ry="39.0" transform="rotate(-6.5 1018.0 558.2)" fill="#3d5c44" opacity="1.0"/>
<ellipse cx="929.8" cy="569.4" rx="83.2" ry="55.2" transform="rotate(-12.2 929.8 569.4)" fill="#233a2d" opacity="1.0"/>
<ellipse cx="959.5" cy="577.3" rx="67.4" ry="43.5" transform="rotate(-10.4 959.5 577.3)" fill="#2f4a3a" opacity="1.0"/>
<ellipse cx="1046.1" cy="528.8" rx="49.2" ry="39.2" transform="rotate(-19.4 1046.1 528.8)" fill="#3d5c44" opacity="1.0"/>
<path d="M 892.6,963.7 Q 923.4,893.9 954.1,963.7" fill="none" stroke="#1f150f" stroke-width="16.91697383580741" stroke-linecap="round" opacity="1.0"/>
<path d="M 892.6,963.7 Q 923.4,893.9 954.1,963.7" fill="none" stroke="#3b2a20" stroke-width="10.91697383580741" stroke-linecap="round" opacity="1.0"/>
<path d="M 941.1,963.7 Q 969.7,913.8 998.2,963.7" fill="none" stroke="#1f150f" stroke-width="20.19074054087646" stroke-linecap="round" opacity="1.0"/>
<path d="M 941.1,963.7 Q 969.7,913.8 998.2,963.7" fill="none" stroke="#3b2a20" stroke-width="14.190740540876464" stroke-linecap="round" opacity="1.0"/>
<path d="M 988.7,963.7 Q 1010.6,920.9 1032.5,963.7" fill="none" stroke="#1f150f" stroke-width="19.722787088219683" stroke-linecap="round" opacity="1.0"/>
<path d="M 988.7,963.7 Q 1010.6,920.9 1032.5,963.7" fill="none" stroke="#3b2a20" stroke-width="13.722787088219683" stroke-linecap="round" opacity="1.0"/>
<ellipse cx="960.0" cy="967.8" rx="41.1" ry="8.2" transform="rotate(0.0 960.0 967.8)" fill="#000000" opacity="0.18"/>
<path d="M 1248.0,960.1 Q 1271.8,812.8 1269.1,692.3" fill="none" stroke="#1f150f" stroke-width="31.5" stroke-linecap="round"/>
<path d="M 1248.0,960.1 Q 1271.8,812.8 1269.1,692.3" fill="none" stroke="#3b2a20" stroke-width="25.5" stroke-linecap="round"/>
<path d="M 1264.5,751.4 Q 1302.9,682.7 1341.3,723.9" fill="none" stroke="#1f150f" stroke-width="15.475" stroke-linecap="round" opacity="1.0"/>
<path d="M 1264.5,751.4 Q 1302.9,682.7 1341.3,723.9" fill="none" stroke="#3b2a20" stroke-width="11.475" stroke-linecap="round" opacity="1.0"/>
<ellipse cx="1351.9" cy="705.0" rx="38.0" ry="30.2" transform="rotate(1.0 1351.9 705.0)" fill="#3d5c44" opacity="1.0"/>
<ellipse cx="1330.1" cy="708.0" rx="39.1" ry="19.2" transform="rotate(-16.0 1330.1 708.0)" fill="#2f4a3a" opacity="1.0"/>
<ellipse cx="1310.2" cy="725.4" rx="39.1" ry="25.5" transform="rotate(-0.1 1310.2 725.4)" fill="#3d5c44" opacity="1.0"/>
<ellipse cx="1361.0" cy="698.8" rx="36.3" ry="19.4" transform="rotate(18.4 1361.0 698.8)" fill="#3d5c44" opacity="1.0"/>
<ellipse cx="1350.3" cy="699.0" rx="27.4" ry="29.9" transform="rotate(17.7 1350.3 699.0)" fill="#233a2d" opacity="1.0"/>
<ellipse cx="1322.1" cy="725.4" rx="35.6" ry="19.4" transform="rotate(17.3 1322.1 725.4)" fill="#233a2d" opacity="1.0"/>
<ellipse cx="1376.9" cy="705.1" rx="33.6" ry="25.7" transform="rotate(13.0 1376.9 705.1)" fill="#3d5c44" opacity="1.0"/>
<path d="M 1265.2,742.4 Q 1232.8,676.4 1200.5,722.2" fill="none" stroke="#1f150f" stroke-width="15.475" stroke-linecap="round" opacity="1.0"/>
<path d="M 1265.2,742.4 Q 1232.8,676.4 1200.5,722.2" fill="none" stroke="#3b2a20" stroke-width="11.475" stroke-linecap="round" opacity="1.0"/>
<ellipse cx="1172.6" cy="711.4" rx="34.6" ry="26.6" transform="rotate(10.1 1172.6 711.4)" fill="#3d5c44" opacity="1.0"/>
<ellipse cx="1205.3" cy="714.2" rx="31.4" ry="22.3" transform="rotate(9.1 1205.3 714.2)" fill="#2f4a3a" opacity="1.0"/>
<ellipse cx="1186.0" cy="711.2" rx="26.9" ry="25.3" transform="rotate(-13.3 1186.0 711.2)" fill="#233a2d" opacity="1.0"/>
<ellipse cx="1186.6" cy="712.0" rx="34.4" ry="20.4" transform="rotate(-17.3 1186.6 712.0)" fill="#2f4a3a" opacity="1.0"/>
<ellipse cx="1203.3" cy="719.3" rx="37.8" ry="18.1" transform="rotate(-17.5 1203.3 719.3)" fill="#2f4a3a" opacity="1.0"/>
<ellipse cx="1201.3" cy="726.1" rx="31.8" ry="16.9" transform="rotate(6.0 1201.3 726.1)" fill="#3d5c44" opacity="1.0"/>
<ellipse cx="1180.3" cy="714.7" rx="25.8" ry="24.5" transform="rotate(1.0 1180.3 714.7)" fill="#2f4a3a" opacity="1.0"/>
<path d="M 1258.6,825.3 Q 1309.3,758.5 1360.0,797.9" fill="none" stroke="#1f150f" stroke-width="15.475" stroke-linecap="round" opacity="1.0"/>
<path d="M 1258.6,825.3 Q 1309.3,758.5 1360.0,797.9" fill="none" stroke="#3b2a20" stroke-width="11.475" stroke-linecap="round" opacity="1.0"/>
<ellipse cx="1366.7" cy="783.1" rx="37.8" ry="24.4" transform="rotate(10.2 1366.7 783.1)" fill="#233a2d" opacity="1.0"/>
<ellipse cx="1389.5" cy="799.5" rx="34.8" ry="20.2" transform="rotate(-9.9 1389.5 799.5)" fill="#2f4a3a" opacity="1.0"/>
<ellipse cx="1363.3" cy="780.2" rx="33.9" ry="22.5" transform="rotate(15.1 1363.3 780.2)" fill="#3d5c44" opacity="1.0"/>
<ellipse cx="1360.0" cy="783.6" rx="35.4" ry="19.8" transform="rotate(-19.5 1360.0 783.6)" fill="#3d5c44" opacity="1.0"/>
<ellipse cx="1379.2" cy="778.9" rx="32.1" ry="22.7" transform="rotate(-18.2 1379.2 778.9)" fill="#2f4a3a" opacity="1.0"/>
<ellipse cx="1364.7" cy="797.0" rx="31.7" ry="30.1" transform="rotate(3.9 1364.7 797.0)" fill="#233a2d" opacity="1.0"/>
<ellipse cx="1361.0" cy="786.6" rx="25.8" ry="18.4" transform="rotate(4.1 1361.0 786.6)" fill="#2f4a3a" opacity="1.0"/>
<ellipse cx="1309.8" cy="700.3" rx="46.7" ry="27.0" transform="rotate(19.1 1309.8 700.3)" fill="#233a2d" opacity="1.0"/>
<ellipse cx="1268.1" cy="692.8" rx="31.2" ry="27.7" transform="rotate(-16.2 1268.1 692.8)" fill="#233a2d" opacity="1.0"/>
<ellipse cx="1274.5" cy="682.2" rx="45.5" ry="41.9" transform="rotate(2.9 1274.5 682.2)" fill="#3d5c44" opacity="1.0"/>
<ellipse cx="1247.3" cy="676.7" rx="43.8" ry="25.0" transform="rotate(-1.8 1247.3 676.7)" fill="#2f4a3a" opacity="1.0"/>
<ellipse cx="1235.6" cy="690.7" rx="33.8" ry="40.4" transform="rotate(12.2 1235.6 690.7)" fill="#3d5c44" opacity="1.0"/>
<ellipse cx="1288.0" cy="698.2" rx="40.5" ry="34.9" transform="rotate(-8.7 1288.0 698.2)" fill="#3d5c44" opacity="1.0"/>
<ellipse cx="1251.5" cy="689.3" rx="39.3" ry="41.0" transform="rotate(-13.0 1251.5 689.3)" fill="#2f4a3a" opacity="1.0"/>
<path d="M 1205.8,960.1 Q 1224.7,927.9 1243.5,960.1" fill="none" stroke="#1f150f" stroke-width="16.55138847451275" stroke-linecap="round" opacity="1.0"/>
<path d="M 1205.8,960.1 Q 1224.7,927.9 1243.5,960.1" fill="none" stroke="#3b2a20" stroke-width="10.551388474512748" stroke-linecap="round" opacity="1.0"/>
<path d="M 1235.1,960.1 Q 1249.7,917.4 1264.4,960.1" fill="none" stroke="#1f150f" stroke-width="14.607782162028437" stroke-linecap="round" opacity="1.0"/>
<path d="M 1235.1,960.1 Q 1249.7,917.4 1264.4,960.1" fill="none" stroke="#3b2a20" stroke-width="8.607782162028437" stroke-linecap="round" opacity="1.0"/>
<path d="M 1259.7,960.1 Q 1278.6,928.5 1297.4,960.1" fill="none" stroke="#1f150f" stroke-width="14.72512013028352" stroke-linecap="round" opacity="1.0"/>
<path d="M 1259.7,960.1 Q 1278.6,928.5 1297.4,960.1" fill="none" stroke="#3b2a20" stroke-width="8.72512013028352" stroke-linecap="round" opacity="1.0"/>
<ellipse cx="1248.0" cy="962.9" rx="28.1" ry="5.6" transform="rotate(0.0 1248.0 962.9)" fill="#000000" opacity="0.18"/>
<path d="M 1536.0,963.5 Q 1539.3,816.2 1553.4,695.7" fill="none" stroke="#1f150f" stroke-width="31.5" stroke-linecap="round"/>
<path d="M 1536.0,963.5 Q 1539.3,816.2 1553.4,695.7" fill="none" stroke="#3b2a20" stroke-width="25.5" stroke-linecap="round"/>
<path d="M 1550.0,747.7 Q 1609.2,678.5 1668.3,721.0" fill="none" stroke="#1f150f" stroke-width="15.475" stroke-linecap="round" opacity="1.0"/>
<path d="M 1550.0,747.7 Q 1609.2,678.5 1668.3,721.0" fill="none" stroke="#3b2a20" stroke-width="11.475" stroke-linecap="round" opacity="1.0"/>
<ellipse cx="1659.1" cy="686.2" rx="22.8" ry="30.0" transform="rotate(-17.7 1659.1 686.2)" fill="#3d5c44" opacity="1.0"/>
<ellipse cx="1680.1" cy="689.2" rx="26.1" ry="30.5" transform="rotate(-2.5 1680.1 689.2)" fill="#3d5c44" opacity="1.0"/>
<ellipse cx="1667.6" cy="701.1" rx="26.8" ry="23.4" transform="rotate(-0.6 1667.6 701.1)" fill="#233a2d" opacity="1.0"/>
<ellipse cx="1675.8" cy="713.5" rx="32.1" ry="17.9" transform="rotate(-6.8 1675.8 713.5)" fill="#3d5c44" opacity="1.0"/>
<ellipse cx="1672.2" cy="705.6" rx="24.1" ry="18.1" transform="rotate(-16.0 1672.2 705.6)" fill="#3d5c44" opacity="1.0"/>
<ellipse cx="1681.4" cy="725.4" rx="31.1" ry="24.6" transform="rotate(-9.9 1681.4 725.4)" fill="#233a2d" opacity="1.0"/>
<ellipse cx="1658.8" cy="710.2" rx="39.9" ry="23.7" transform="rotate(-10.2 1658.8 710.2)" fill="#2f4a3a" opacity="1.0"/>
<path d="M 1546.4,802.6 Q 1509.8,732.2 1473.3,774.4" fill="none" stroke="#1f150f" stroke-width="15.475" stroke-linecap="round" opacity="1.0"/>
<path d="M 1546.4,802.6 Q 1509.8,732.2 1473.3,774.4" fill="none" stroke="#3b2a20" stroke-width="11.475" stroke-linecap="round" opacity="1.0"/>
<ellipse cx="1509.1" cy="765.8" rx="36.6" ry="17.1" transform="rotate(-6.1 1509.1 765.8)" fill="#233a2d" opacity="1.0"/>
<ellipse cx="1472.1" cy="761.9" rx="23.8" ry="18.6" transform="rotate(-0.2 1472.1 761.9)" fill="#3d5c44" opacity="1.0"/>
<ellipse cx="1469.7" cy="772.3" rx="30.2" ry="23.4" transform="rotate(9.2 1469.7 772.3)" fill="#3d5c44" opacity="1.0"/>
<ellipse cx="1487.7" cy="763.7" rx="41.4" ry="27.5" transform="rotate(-9.3 1487.7 763.7)" fill="#233a2d" opacity="1.0"/>
<ellipse cx="1453.8" cy="762.0" rx="27.9" ry="26.2" transform="rotate(-12.3 1453.8 762.0)" fill="#233a2d" opacity="1.0"/>
<ellipse cx="1472.7" cy="760.8" rx="26.0" ry="26.8" transform="rotate(-7.9 1472.7 760.8)" fill="#233a2d" opacity="1.0"/>
<ellipse cx="1494.4" cy="744.8" rx="25.5" ry="29.7" transform="rotate(10.3 1494.4 744.8)" fill="#2f4a3a" opacity="1.0"/>
<path d="M 1545.0,825.2 Q 1595.7,769.5 1646.5,796.8" fill="none" stroke="#1f150f" stroke-width="15.475" stroke-linecap="round" opacity="1.0"/>
<path d="M 1545.0,825.2 Q 1595.7,769.5 1646.5,796.8" fill="none" stroke="#3b2a20" stroke-width="11.475" stroke-linecap="round" opacity="1.0"/>
<ellipse cx="1638.6" cy="783.6" rx="41.2" ry="25.7" transform="rotate(6.8 1638.6 783.6)" fill="#233a2d" opacity="1.0"/>
<ellipse cx="1633.6" cy="785.9" rx="26.6" ry="28.9" transform="rotate(-7.2 1633.6 785.9)" fill="#233a2d" opacity="1.0"/>
<ellipse cx="1643.9" cy="760.3" rx="36.3" ry="21.3" transform="rotate(-8.7 1643.9 760.3)" fill="#2f4a3a" opacity="1.0"/>
<ellipse cx="1644.5" cy="788.7" rx="40.3" ry="27.2" transform="rotate(-11.6 1644.5 788.7)" fill="#3d5c44" opacity="1.0"/>
<ellipse cx="1667.9" cy="771.8" rx="24.3" ry="29.0" transform="rotate(15.1 1667.9 771.8)" fill="#3d5c44" opacity="1.0"/>
<ellipse cx="1616.7" cy="797.9" rx="34.3" ry="29.4" transform="rotate(18.3 1616.7 797.9)" fill="#233a2d" opacity="1.0"/>
<ellipse cx="1652.5" cy="775.1" rx="22.5" ry="22.3" transform="rotate(-8.4 1652.5 775.1)" fill="#233a2d" opacity="1.0"/>
<ellipse cx="1549.4" cy="689.8" rx="46.2" ry="25.5" transform="rotate(14.5 1549.4 689.8)" fill="#3d5c44" opacity="1.0"/>
<ellipse cx="1578.8" cy="700.1" rx="39.4" ry="30.8" transform="rotate(-17.3 1578.8 700.1)" fill="#3d5c44" opacity="1.0"/>
<ellipse cx="1527.5" cy="657.9" rx="53.7" ry="38.7" transform="rotate(17.6 1527.5 657.9)" fill="#2f4a3a" opacity="1.0"/>
<ellipse cx="1560.3" cy="717.4" rx="36.1" ry="40.8" transform="rotate(-4.9 1560.3 717.4)" fill="#3d5c44" opacity="1.0"/>
<ellipse cx="1532.7" cy="713.0" rx="52.9" ry="25.5" transform="rotate(12.6 1532.7 713.0)" fill="#233a2d" opacity="1.0"/>
<ellipse cx="1518.0" cy="671.9" rx="34.0" ry="33.6" transform="rotate(-3.8 1518.0 671.9)" fill="#3d5c44" opacity="1.0"/>
<ellipse cx="1578.2" cy="677.6" rx="42.4" ry="41.2" transform="rotate(12.6 1578.2 677.6)" fill="#2f4a3a" opacity="1.0"/>
<path d="M 1497.3,963.5 Q 1514.1,932.9 1530.8,963.5" fill="none" stroke="#1f150f" stroke-width="15.48570786825422" stroke-linecap="round" opacity="1.0"/>
<path d="M 1497.3,963.5 Q 1514.1,932.9 1530.8,963.5" fill="none" stroke="#3b2a20" stroke-width="9.48570786825422" stroke-linecap="round" opacity="1.0"/>
<path d="M 1523.1,963.5 Q 1541.0,924.7 1558.9,963.5" fill="none" stroke="#1f150f" stroke-width="16.459972140566258" stroke-linecap="round" opacity="1.0"/>
<path d="M 1523.1,963.5 Q 1541.0,924.7 1558.9,963.5" fill="none" stroke="#3b2a20" stroke-width="10.45997214056626" stroke-linecap="round" opacity="1.0"/>
<path d="M 1556.9,963.5 Q 1574.4,930.5 1591.9,963.5" fill="none" stroke="#1f150f" stroke-width="13.507118315090597" stroke-linecap="round" opacity="1.0"/>
<path d="M 1556.9,963.5 Q 1574.4,930.5 1591.9,963.5" fill="none" stroke="#3b2a20" stroke-width="7.507118315090597" stroke-linecap="round" opacity="1.0"/>
<ellipse cx="1536.0" cy="966.3" rx="28.1" ry="5.6" transform="rotate(0.0 1536.0 966.3)" fill="#000000" opacity="0.18"/>
<path d="M 1804.8,958.5 Q 1817.6,860.3 1811.2,780.0" fill="none" stroke="#1f150f" stroke-width="23.0" stroke-linecap="round"/>
<path d="M 1804.8,958.5 Q 1817.6,860.3 1811.2,780.0" fill="none" stroke="#3b2a20" stroke-width="17.0" stroke-linecap="round"/>
<path d="M 1807.7,876.8 Q 1847.0,827.6 1886.3,843.9" fill="none" stroke="#1f150f" stroke-width="11.649999999999999" stroke-linecap="round" opacity="1.0"/>
<path d="M 1807.7,876.8 Q 1847.0,827.6 1886.3,843.9" fill="none" stroke="#3b2a20" stroke-width="7.6499999999999995" stroke-linecap="round" opacity="1.0"/>
<ellipse cx="1886.6" cy="845.1" rx="27.7" ry="17.4" transform="rotate(10.5 1886.6 845.1)" fill="#3d5c44" opacity="1.0"/>
<ellipse cx="1897.8" cy="833.4" rx="22.1" ry="12.4" transform="rotate(3.8 1897.8 833.4)" fill="#3d5c44" opacity="1.0"/>
<ellipse cx="1879.8" cy="820.6" rx="18.6" ry="14.2" transform="rotate(16.3 1879.8 820.6)" fill="#2f4a3a" opacity="1.0"/>
<ellipse cx="1887.8" cy="837.8" rx="22.0" ry="13.5" transform="rotate(-16.9 1887.8 837.8)" fill="#2f4a3a" opacity="1.0"/>
<path d="M 1810.0,813.4 Q 1773.4,767.5 1736.8,799.3" fill="none" stroke="#1f150f" stroke-width="11.649999999999999" stroke-linecap="round" opacity="1.0"/>
<path d="M 1810.0,813.4 Q 1773.4,767.5 1736.8,799.3" fill="none" stroke="#3b2a20" stroke-width="7.6499999999999995" stroke-linecap="round" opacity="1.0"/>
<ellipse cx="1736.9" cy="792.4" rx="23.7" ry="13.5" transform="rotate(-18.1 1736.9 792.4)" fill="#233a2d" opacity="1.0"/>
<ellipse cx="1722.0" cy="789.7" rx="21.7" ry="16.7" transform="rotate(13.5 1722.0 789.7)" fill="#233a2d" opacity="1.0"/>
<ellipse cx="1744.4" cy="787.4" rx="16.4" ry="20.4" transform="rotate(-4.2 1744.4 787.4)" fill="#3d5c44" opacity="1.0"/>
<ellipse cx="1715.7" cy="781.7" rx="21.9" ry="19.5" transform="rotate(14.8 1715.7 781.7)" fill="#233a2d" opacity="1.0"/>
<ellipse cx="1785.9" cy="781.5" rx="30.0" ry="21.6" transform="rotate(-11.0 1785.9 781.5)" fill="#233a2d" opacity="1.0"/>
<ellipse cx="1830.8" cy="773.0" rx="22.2" ry="24.7" transform="rotate(-14.9 1830.8 773.0)" fill="#2f4a3a" opacity="1.0"/>
<ellipse cx="1785.8" cy="759.1" rx="30.8" ry="24.6" transform="rotate(18.1 1785.8 759.1)" fill="#233a2d" opacity="1.0"/>
<ellipse cx="1822.6" cy="775.1" rx="31.6" ry="18.8" transform="rotate(-16.6 1822.6 775.1)" fill="#3d5c44" opacity="1.0"/>
<ellipse cx="1821.0" cy="778.2" rx="24.4" ry="15.6" transform="rotate(15.6 1821.0 778.2)" fill="#233a2d" opacity="1.0"/>
<ellipse cx="1818.6" cy="780.1" rx="31.1" ry="16.8" transform="rotate(-7.8 1818.6 780.1)" fill="#233a2d" opacity="1.0"/>
<ellipse cx="1837.5" cy="772.1" rx="35.0" ry="26.3" transform="rotate(-11.8 1837.5 772.1)" fill="#2f4a3a" opacity="1.0"/>
<path d="M 1775.6,958.5 Q 1787.7,937.3 1799.7,958.5" fill="none" stroke="#1f150f" stroke-width="13.198017470090445" stroke-linecap="round" opacity="1.0"/>
<path d="M 1775.6,958.5 Q 1787.7,937.3 1799.7,958.5" fill="none" stroke="#3b2a20" stroke-width="7.198017470090445" stroke-linecap="round" opacity="1.0"/>
<path d="M 1796.2,958.5 Q 1807.9,929.4 1819.7,958.5" fill="none" stroke="#1f150f" stroke-width="12.641300201745247" stroke-linecap="round" opacity="1.0"/>
<path d="M 1796.2,958.5 Q 1807.9,929.4 1819.7,958.5" fill="none" stroke="#3b2a20" stroke-width="6.641300201745247" stroke-linecap="round" opacity="1.0"/>
<path d="M 1819.9,958.5 Q 1831.7,940.0 1843.5,958.5" fill="none" stroke="#1f150f" stroke-width="12.668939059038115" stroke-linecap="round" opacity="1.0"/>
<path d="M 1819.9,958.5 Q 1831.7,940.0 1843.5,958.5" fill="none" stroke="#3b2a20" stroke-width="6.668939059038115" stroke-linecap="round" opacity="1.0"/>
<ellipse cx="1804.8" cy="960.3" rx="18.7" ry="3.7" transform="rotate(0.0 1804.8 960.3)" fill="#000000" opacity="0.18"/>
<path d="M 217.7,990.0 Q 229.6,971.0 241.5,990.0" fill="none" stroke="#1f150f" stroke-width="12.039326903127343" stroke-linecap="round" opacity="1.0"/>
<path d="M 217.7,990.0 Q 229.6,971.0 241.5,990.0" fill="none" stroke="#3b2a20" stroke-width="6.039326903127343" stroke-linecap="round" opacity="1.0"/>
<path d="M 240.4,990.0 Q 252.7,961.7 265.0,990.0" fill="none" stroke="#1f150f" stroke-width="11.485135259970562" stroke-linecap="round" opacity="1.0"/>
<path d="M 240.4,990.0 Q 252.7,961.7 265.0,990.0" fill="none" stroke="#3b2a20" stroke-width="5.485135259970561" stroke-linecap="round" opacity="1.0"/>
<path d="M 261.6,990.0 Q 273.6,968.8 285.7,990.0" fill="none" stroke="#1f150f" stroke-width="11.739024330663595" stroke-linecap="round" opacity="1.0"/>
<path d="M 261.6,990.0 Q 273.6,968.8 285.7,990.0" fill="none" stroke="#3b2a20" stroke-width="5.739024330663595" stroke-linecap="round" opacity="1.0"/>
<ellipse cx="249.6" cy="992.0" rx="20.0" ry="4.0" transform="rotate(0.0 249.6 992.0)" fill="#000000" opacity="0.18"/>
<path d="M 795.5,990.0 Q 809.5,963.1 823.5,990.0" fill="none" stroke="#1f150f" stroke-width="12.377133808693744" stroke-linecap="round" opacity="1.0"/>
<path d="M 795.5,990.0 Q 809.5,963.1 823.5,990.0" fill="none" stroke="#3b2a20" stroke-width="6.377133808693744" stroke-linecap="round" opacity="1.0"/>
<path d="M 816.4,990.0 Q 829.8,966.9 843.2,990.0" fill="none" stroke="#1f150f" stroke-width="13.913381477769095" stroke-linecap="round" opacity="1.0"/>
<path d="M 816.4,990.0 Q 829.8,966.9 843.2,990.0" fill="none" stroke="#3b2a20" stroke-width="7.913381477769095" stroke-linecap="round" opacity="1.0"/>
<path d="M 835.9,990.0 Q 850.7,969.5 865.4,990.0" fill="none" stroke="#1f150f" stroke-width="12.338802479046132" stroke-linecap="round" opacity="1.0"/>
<path d="M 835.9,990.0 Q 850.7,969.5 865.4,990.0" fill="none" stroke="#3b2a20" stroke-width="6.338802479046132" stroke-linecap="round" opacity="1.0"/>
<ellipse cx="825.6" cy="992.0" rx="20.0" ry="4.0" transform="rotate(0.0 825.6 992.0)" fill="#000000" opacity="0.18"/>
<path d="M 1347.1,990.0 Q 1359.9,962.1 1372.7,990.0" fill="none" stroke="#1f150f" stroke-width="12.42454972727614" stroke-linecap="round" opacity="1.0"/>
<path d="M 1347.1,990.0 Q 1359.9,962.1 1372.7,990.0" fill="none" stroke="#3b2a20" stroke-width="6.424549727276141" stroke-linecap="round" opacity="1.0"/>
<path d="M 1373.2,990.0 Q 1383.7,964.6 1394.2,990.0" fill="none" stroke="#1f150f" stroke-width="12.511090084611249" stroke-linecap="round" opacity="1.0"/>
<path d="M 1373.2,990.0 Q 1383.7,964.6 1394.2,990.0" fill="none" stroke="#3b2a20" stroke-width="6.511090084611249" stroke-linecap="round" opacity="1.0"/>
<path d="M 1397.6,990.0 Q 1409.5,955.5 1421.4,990.0" fill="none" stroke="#1f150f" stroke-width="11.33843057588243" stroke-linecap="round" opacity="1.0"/>
<path d="M 1397.6,990.0 Q 1409.5,955.5 1421.4,990.0" fill="none" stroke="#3b2a20" stroke-width="5.3384305758824295" stroke-linecap="round" opacity="1.0"/>
<ellipse cx="1382.4" cy="992.0" rx="20.0" ry="4.0" transform="rotate(0.0 1382.4 992.0)" fill="#000000" opacity="0.18"/>
<path d="M 1662.9,990.0 Q 1677.7,967.9 1692.5,990.0" fill="none" stroke="#1f150f" stroke-width="13.983214949806012" stroke-linecap="round" opacity="1.0"/>
<path d="M 1662.9,990.0 Q 1677.7,967.9 1692.5,990.0" fill="none" stroke="#3b2a20" stroke-width="7.983214949806013" stroke-linecap="round" opacity="1.0"/>
<path d="M 1680.4,990.0 Q 1691.9,962.7 1703.5,990.0" fill="none" stroke="#1f150f" stroke-width="12.194838020750137" stroke-linecap="round" opacity="1.0"/>
<path d="M 1680.4,990.0 Q 1691.9,962.7 1703.5,990.0" fill="none" stroke="#3b2a20" stroke-width="6.194838020750136" stroke-linecap="round" opacity="1.0"/>
<path d="M 1701.4,990.0 Q 1715.4,957.8 1729.4,990.0" fill="none" stroke="#1f150f" stroke-width="11.769618269694089" stroke-linecap="round" opacity="1.0"/>
<path d="M 1701.4,990.0 Q 1715.4,957.8 1729.4,990.0" fill="none" stroke="#3b2a20" stroke-width="5.76961826969409" stroke-linecap="round" opacity="1.0"/>
<ellipse cx="1689.6" cy="992.0" rx="20.0" ry="4.0" transform="rotate(0.0 1689.6 992.0)" fill="#000000" opacity="0.18"/>
</svg>
